# xmcd
#
# Track frame offsets: 
#        150
#        14115
#        28403
#        46343
#        63804
#        83404
#        105926
#        123406
#        138367
#        158111
#        177996
#        195066
#        210613
#        230784
#        242704
#        272856
#
# Disc length: 3979 seconds
#
# Revision: 0
# Processed by: cddbd v1.5.2PL0 Copyright (c) Steve Scherf et al.
# Submitted via: ExactAudioCopy v1.3
#
DISCID=d50f8910
DTITLE=James Crouch - Moonrays
DYEAR=1900
DGENRE=Blues
TTITLE0=I Put a Spell on You (feat Dina Madeiro)
TTITLE1=Dreams (feat Dina Madeiros)
TTITLE2=Gimme One Reasn (feat Dina Madeiros)
TTITLE3=What's Up? (feat Dina Madeiros)
TTITLE4=Mary Had A Little Lamb
TTITLE5=As Long As I Can See The Light
TTITLE6=I Tried
TTITLE7=Barcelona
TTITLE8=Love Song (feat Viviana Clary)
TTITLE9=Nobody Knows You When You're Down And Out
TTITLE10=Moonrays (feat Marvin Knox)
TTITLE11=Something (feat Marvin Knox)
TTITLE12=Born Under A Bad Sign (feat Roxie Tomei)
TTITLE13=Ain't No Sunshine (feat Viviana Clary)
TTITLE14=Bring It On Home To Me (feat Viviana Clary)
TTITLE15=The Only Constant Is Change
EXTD=
EXTT0=
EXTT1=
EXTT2=
EXTT3=
EXTT4=
EXTT5=
EXTT6=
EXTT7=
EXTT8=
EXTT9=
EXTT10=
EXTT11=
EXTT12=
EXTT13=
EXTT14=
EXTT15=
PLAYORDER=
